<svg width="70" height="60" viewBox="0 0 70 60" fill="none" xmlns="http://www.w3.org/2000/svg">
<g clip-path="url(#clip0_1_111)">
<path d="M6.15234 28.2422H26.0846L33.6868 34.7584C34.278 35.2646 35.165 35.41 35.9218 35.1393C36.6888 34.8683 37.1875 34.226 37.1875 33.5156V28.2422H43.3398C46.7322 28.2422 49.4922 25.8764 49.4922 22.9688V5.39062C49.4922 2.4825 46.7321 0.117188 43.3398 0.117188H6.15234C2.75994 0.117188 0 2.4825 0 5.39062V22.9688C0 25.8765 2.76008 28.2422 6.15234 28.2422ZM37.1875 10.6641C39.4488 10.6641 41.2891 12.2414 41.2891 14.1797C41.2891 16.118 39.4488 17.6953 37.1875 17.6953C34.9262 17.6953 33.0859 16.118 33.0859 14.1797C33.0859 12.2414 34.9262 10.6641 37.1875 10.6641ZM24.8828 10.6641C27.1441 10.6641 28.9844 12.2414 28.9844 14.1797C28.9844 16.118 27.1441 17.6953 24.8828 17.6953C22.6215 17.6953 20.7812 16.118 20.7812 14.1797C20.7812 12.2414 22.6215 10.6641 24.8828 10.6641ZM12.4414 10.6641C14.7027 10.6641 16.543 12.2414 16.543 14.1797C16.543 16.118 14.7027 17.6953 12.4414 17.6953C10.1801 17.6953 8.33984 16.118 8.33984 14.1797C8.33984 12.2414 10.1801 10.6641 12.4414 10.6641ZM2.05078 56.3672H30.7426C31.111 56.3672 31.888 56.1177 31.958 56.0862L37.7825 53.59C37.9464 53.5194 38.1515 53.4142 38.3154 53.2736L32.4909 48.2812C32.327 48.4219 32.2042 48.5977 32.1219 48.738L29.7227 52.8516H2.05078C0.917383 52.8516 0 53.6375 0 54.6094C0 55.5809 0.917383 56.3672 2.05078 56.3672ZM56.3415 27.9254L35.4032 45.8203L41.1865 50.7773L62.166 32.9179L56.3415 27.9254ZM66.5137 21.7383C65.6934 21.0352 64.3806 21.0352 63.6016 21.7383L59.2536 25.4648L65.037 30.4216L69.3848 26.6953C70.2051 26.027 70.2051 24.9022 69.3848 24.1991L66.5137 21.7383Z" fill="#242F65"/>
</g>
<defs>
<clipPath id="clip0_1_111">
<rect width="70" height="60" fill="white"/>
</clipPath>
</defs>
</svg>
