<svg width="60" height="60" viewBox="0 0 60 60" fill="none" xmlns="http://www.w3.org/2000/svg">
<g clip-path="url(#clip0_1_126)">
<path d="M22.2802 37.6525L24.604 39.3729L24.6473 19.6918H22.3189L22.2802 37.6525ZM24.9595 1.08505L21.8098 3.68962H34.4402L31.2906 1.08205C29.4532 -0.437479 26.7954 -0.435927 24.9595 1.08505Z" fill="#451257"/>
<path d="M20.6232 18.7905C20.6235 18.6154 20.6781 18.4446 20.7793 18.3017L27.4328 8.9164C27.5115 8.80583 27.6155 8.71566 27.7361 8.65341C27.8567 8.59116 27.9904 8.55863 28.1262 8.55854C28.4016 8.55854 28.6596 8.69218 28.8194 8.9164L35.4745 18.3018C35.5773 18.4442 35.6335 18.6149 35.6354 18.7905L35.6825 36.3501L47.8848 27.2617V5.38672H8.24316V27.1532L20.5789 36.35L20.6232 18.7905ZM49.582 16.2841V25.9956L55.7325 21.4075L49.582 16.2841Z" fill="#451257"/>
<path d="M26.2987 40.4317C27.4744 40.8862 28.7781 40.8815 29.9506 40.4188L29.9052 19.6917H26.3441L26.2987 40.4317ZM28.1247 10.9254L23.113 17.9945H33.1363L28.1247 10.9254ZM33.9694 37.6525L33.9307 19.6918H31.6025L31.6461 39.3729L33.9694 37.6525ZM6.546 16.4353L0.542969 21.4094L6.546 25.8873V16.4353Z" fill="#451257"/>
<path d="M28.117 42.4332C26.6807 42.4364 25.2816 41.9765 24.1275 41.1216L0 23.1359V47.5655C0.0174569 50.314 2.24612 52.5359 4.99461 52.5446H51.2554C54.0038 52.5359 56.2325 50.314 56.25 47.5655V23.1359L32.1183 41.1216C30.9598 41.9766 29.5569 42.4364 28.117 42.4331V42.4332Z" fill="#451257"/>
</g>
<defs>
<clipPath id="clip0_1_126">
<rect width="60" height="60" fill="white"/>
</clipPath>
</defs>
</svg>
