<svg width="60" height="60" viewBox="0 0 60 60" fill="none" xmlns="http://www.w3.org/2000/svg">
<path fill-rule="evenodd" clip-rule="evenodd" d="M1.40674 51.082C1.40674 51.6846 1.57842 52.2504 1.87689 52.7362L20.3829 37.6779L1.92916 24.4398C1.59869 24.9436 1.40674 25.5393 1.40674 26.1763V51.082ZM57.8985 20.0311C58.0187 20.0615 58.1317 20.1155 58.2308 20.1899C58.33 20.2644 58.4133 20.3578 58.4761 20.4647C58.5389 20.5716 58.5798 20.69 58.5965 20.8128C58.6131 20.9357 58.6052 21.0607 58.5732 21.1805C58.5412 21.3002 58.4857 21.4125 58.41 21.5107C58.3343 21.6088 58.2398 21.691 58.132 21.7524C58.0243 21.8137 57.9054 21.8531 57.7824 21.8681C57.6593 21.8832 57.5345 21.8737 57.4151 21.8401L55.5194 21.3321C55.3992 21.3016 55.2862 21.2476 55.187 21.1732C55.0879 21.0987 55.0045 21.0053 54.9417 20.8984C54.879 20.7915 54.8381 20.6732 54.8214 20.5503C54.8047 20.4274 54.8126 20.3025 54.8446 20.1827C54.8766 20.0629 54.9321 19.9506 55.0078 19.8525C55.0836 19.7543 55.1781 19.6721 55.2858 19.6108C55.3935 19.5494 55.5124 19.5101 55.6355 19.495C55.7586 19.4799 55.8834 19.4895 56.0028 19.5231L57.8985 20.0311ZM52.1523 12.4167C52.1219 12.5369 52.0679 12.6498 51.9934 12.749C51.919 12.8482 51.8256 12.9315 51.7187 12.9943C51.6117 13.0571 51.4934 13.098 51.3705 13.1147C51.2477 13.1313 51.1227 13.1234 51.0029 13.0914C50.8831 13.0594 50.7709 13.0039 50.6727 12.9282C50.5746 12.8525 50.4924 12.758 50.431 12.6502C50.3697 12.5425 50.3303 12.4236 50.3153 12.3006C50.3002 12.1775 50.3097 12.0526 50.3433 11.9333L50.8513 10.0375C50.918 9.80054 51.0753 9.59933 51.2893 9.47748C51.5032 9.35563 51.7565 9.32294 51.9944 9.3865C52.2322 9.45006 52.4355 9.60475 52.5601 9.81707C52.6848 10.0294 52.7208 10.2823 52.6603 10.5209L52.1523 12.4167ZM55.724 16.1497C55.5095 16.2697 55.2564 16.3002 55.0196 16.2348C54.7827 16.1693 54.5812 16.0131 54.4588 15.8001C54.3364 15.587 54.3029 15.3343 54.3656 15.0967C54.4284 14.8591 54.5822 14.6558 54.7938 14.531L56.4935 13.5497C56.708 13.4297 56.9611 13.3991 57.1979 13.4646C57.4348 13.53 57.6363 13.6862 57.7587 13.8993C57.8811 14.1123 57.9146 14.3651 57.8519 14.6026C57.7891 14.8402 57.6353 15.0435 57.4237 15.1684L55.724 16.1497ZM35.2062 21.412L30.9229 23.8849C28.681 25.1792 27.9056 28.0726 29.2 30.3144C30.4944 32.5563 33.3877 33.3317 35.6296 32.0373L39.9128 29.5643L35.2062 21.412ZM36.5813 20.0438C38.3274 18.1173 39.7437 15.817 41.0168 13.633L49.41 28.1703C46.8655 28.1548 44.2806 28.315 41.7433 28.9849L36.5813 20.0438ZM42.0983 11.765L51.5984 28.2195C51.8802 28.2295 52.1611 28.2405 52.4412 28.252C53.5699 28.2984 54.3024 27.0877 53.7375 26.1093L45.0181 11.0068C44.4728 10.0625 43.1067 10.0548 42.5508 10.9927C42.3989 11.2495 42.2481 11.5069 42.0983 11.765ZM44.2075 37.0031L43.4234 37.4558C42.1896 38.168 40.6024 37.7428 39.8902 36.509L37.8263 32.9342L40.8503 31.1882L44.2075 37.0031ZM51.9811 17.2329C52.42 17.9931 52.459 18.8744 52.1638 19.6334L49.9935 15.8744C50.7985 15.9982 51.5421 16.4727 51.9811 17.2329ZM22.8092 18.6602C22.6409 18.8379 22.4095 18.9423 22.165 18.9511C21.9204 18.9598 21.6822 18.8722 21.5016 18.707C21.3211 18.5418 21.2126 18.3123 21.1996 18.0679C21.1866 17.8235 21.2702 17.5838 21.4322 17.4004C22.8172 15.8845 24.7162 14.98 26.7805 14.98C28.845 14.98 30.7438 15.8844 32.1288 17.4004C32.2909 17.5838 32.3744 17.8235 32.3614 18.0679C32.3484 18.3123 32.24 18.5418 32.0594 18.707C31.8789 18.8722 31.6407 18.9598 31.3961 18.9511C31.1515 18.9423 30.9202 18.8379 30.7519 18.6602C29.723 17.534 28.3152 16.855 26.7805 16.855C25.2458 16.855 23.8381 17.534 22.8092 18.6602ZM35.1417 14.1028C32.9762 11.7327 30.0085 10.3168 26.7805 10.3168C23.5526 10.3168 20.5848 11.7327 18.4193 14.1028C18.2573 14.2862 18.1738 14.5259 18.1867 14.7702C18.1997 15.0146 18.3082 15.2441 18.4887 15.4093C18.6693 15.5745 18.9075 15.6622 19.1521 15.6534C19.3966 15.6447 19.628 15.5402 19.7963 15.3625C21.6056 13.3822 24.0822 12.1918 26.7804 12.1918C29.4787 12.1918 31.9552 13.3822 33.7645 15.3625C33.9316 15.5451 34.1644 15.6539 34.4116 15.6649C34.6588 15.6759 34.9003 15.5882 35.0829 15.4211C35.1733 15.3384 35.2466 15.2387 35.2985 15.1277C35.3504 15.0167 35.3799 14.8966 35.3854 14.7741C35.3909 14.6517 35.3722 14.5294 35.3304 14.4142C35.2885 14.299 35.2245 14.1932 35.1417 14.1028ZM16.7836 12.0651C16.6153 12.2428 16.384 12.3472 16.1394 12.356C15.8948 12.3647 15.6566 12.2771 15.4761 12.1119C15.2955 11.9467 15.1871 11.7172 15.1741 11.4728C15.1611 11.2284 15.2446 10.9887 15.4067 10.8054C18.3526 7.58118 22.389 5.65344 26.7805 5.65344C31.172 5.65344 35.2084 7.58118 38.1544 10.8054C38.3194 10.9883 38.4054 11.229 38.3936 11.4751C38.3818 11.7212 38.2732 11.9526 38.0914 12.1189C37.9096 12.2852 37.6695 12.3729 37.4233 12.3628C37.1772 12.3527 36.945 12.2457 36.7774 12.0651C34.1876 9.23083 30.6422 7.52844 26.7805 7.52844C22.9188 7.52856 19.3735 9.23083 16.7836 12.0651ZM3.28303 54.0017L21.957 38.8067L26.2349 41.8756C26.3968 41.9916 26.5915 42.053 26.7907 42.0509C26.9899 42.0488 27.1833 41.9832 27.3427 41.8638L31.6042 38.8067L50.278 54.0017C49.8077 54.2292 49.2918 54.3471 48.7694 54.3464H4.79182C4.26929 54.3471 3.75342 54.2292 3.28303 54.0017ZM51.684 52.7362L33.178 37.6779L36.8706 35.029L38.2664 37.4465C39.4944 39.5735 42.234 40.3075 44.361 39.0795L46.7688 37.6893L42.7839 30.787L43.0437 30.6007C46.0186 29.9545 49.1106 29.9953 52.1544 30.1168V51.082C52.1543 51.6847 51.9825 52.2504 51.684 52.7362ZM29.055 22.9119C26.6536 24.9226 25.9597 28.452 27.5762 31.252C29.0045 33.7259 31.8279 34.9224 34.4953 34.4266L26.7805 39.9609L3.41205 23.1972C3.84753 23.0085 4.31719 22.9113 4.79182 22.9119H29.055Z" fill="#451257"/>
</svg>
