<?xml version="1.0" encoding="utf-8"?>
<!-- Generator: Adobe Illustrator 21.0.2, SVG Export Plug-In . SVG Version: 6.00 Build 0)  -->
<svg version="1.1" id="Layer_2" xmlns="http://www.w3.org/2000/svg" xmlns:xlink="http://www.w3.org/1999/xlink" x="0px" y="0px"
	 viewBox="0 0 1000 222.2" style="enable-background:new 0 0 1000 222.2;" xml:space="preserve">
<style type="text/css">
	.st0{fill:#451257;}
</style>
<g>
	<path class="st0" d="M508.3,165.3c0-0.6-0.1-1.1-0.1-1.7C508.2,164.1,508.3,164.7,508.3,165.3z"/>
	<path class="st0" d="M351.6,186h12.6c3.2,0,6-1.8,7.3-4.7l49.2-108.4h-16.6c-6.8,0-12.9,4-15.7,10.1l-30.5,67.2L327.5,83
		c-2.8-6.2-8.9-10.1-15.7-10.1h-16.7l49.2,108.4C345.6,184.2,348.5,186,351.6,186z"/>
	<path class="st0" d="M471.3,95.8c-0.1-0.7-0.1-1.3-0.1-2C471.2,94.5,471.2,95.2,471.3,95.8z"/>
	<path class="st0" d="M56.5,186h12.6c3.2,0,6-1.8,7.3-4.7l49.2-108.4H109c-6.8,0-12.9,4-15.7,10.1l-30.5,67.2L32.3,83
		c-2.8-6.2-8.9-10.1-15.7-10.1H0l49.2,108.4C50.5,184.2,53.4,186,56.5,186z"/>
	<path class="st0" d="M265.5,186h13.8c3.2,0,5.7-2.6,5.7-5.7V0h-8c-9.5,0-17.2,7.7-17.2,17.2v163.1C259.8,183.5,262.3,186,265.5,186
		z"/>
	<path class="st0" d="M709.9,72.9h-8v9.5c-10.1-6.8-22.6-10.4-35.9-9.3c-27.6,2.2-49.7,24.5-51.8,52.1
		c-2.5,33.1,23.8,60.9,56.4,60.9c11.6,0,22.3-3.5,31.3-9.5v3.7c0,3.2,2.6,5.7,5.7,5.7h13.8c3.2,0,5.7-2.6,5.7-5.7V90.2
		C727.1,80.6,719.4,72.9,709.9,72.9z M701.8,132c-0.3,4-1.4,7.9-3.2,11.3c-4.8,9.6-14.4,16.4-25.5,17.3
		c-19.3,1.5-35.3-14.5-33.7-33.7c1.2-15.2,13.5-27.4,28.6-28.6c13.3-1.1,25.1,6.3,30.6,17.3C701,120.5,702.2,126.1,701.8,132z"/>
	<path class="st0" d="M183.1,186c16.3,0,31.8-7,42.6-19.3L218,160c-5.6-4.9-13.8-6.2-20.4-2.7c-4.4,2.3-9.3,3.5-14.4,3.5
		c-12.8,0-23.8-7.7-28.6-18.7h85.2v-12.6c0-3-0.2-6-0.7-9C234.5,92.3,210,72,181.2,73c-28.5,1-52.1,23.5-54.4,51.9
		C124.1,158.1,150.4,186,183.1,186z M183.1,98.2c12.7,0,23.8,7.5,28.7,18.7h-57.3C159.4,105.9,170.4,98.2,183.1,98.2z"/>
	<path class="st0" d="M471.3,95.8c2.2,29.9,52.1,35.5,52.1,73.8c0,15-13,27.3-28,27.3H0v8c0,9.5,7.7,17.2,17.2,17.2l477.3,0
		c27.2,0,50.6-20.1,53.7-47.1C554.4,122.3,474.4,129.2,471.3,95.8z"/>
	<path class="st0" d="M805.2,67c9.7,0,17.6-7.9,17.6-17.6c0-9.7-7.9-17.6-17.6-17.6c-4.8,0-9.1,1.9-12.2,5H593.9V0h-8
		c-9.5,0-17.2,7.7-17.2,17.2v19.5h-85.2c-29.1,0-52.7,23.6-52.7,52.7c0,46.9,74.6,44.7,77.4,74.1c-1.8-30.2-52.1-35.7-52.1-74.1
		c0-15.1,12.3-27.4,27.4-27.4h85.2v118.3c0,3.2,2.6,5.7,5.7,5.7h13.8c3.2,0,5.7-2.6,5.7-5.7V62H793C796.2,65.1,800.5,67,805.2,67z"
		/>
	<path class="st0" d="M805.4,79.1c0.7-0.3,1.4-0.6,2-0.8c0.7-0.3,1.4-0.5,2.1-0.7c0.3-0.1,0.7-0.2,1-0.3c1.7-0.5,3.5-0.8,5.3-1
		c0.4,0,0.7-0.1,1.1-0.1c1.6-0.1,3.2-0.1,4.8,0c1.3,0.1,2.6,0.3,3.9,0.6c1.3,0.3,2.6,0.7,3.9,1.2c-7.1-3.1-15.4-5.1-25.4-5.1
		c-12.2,0-23.4,3.9-32.7,10.4c-2.6-6.1-8.7-10.4-15.8-10.4h-8v56.5c0,0,0,0,0,0.1h0v50.8c0,3.2,2.6,5.7,5.7,5.7H767
		c3.2,0,5.7-2.6,5.7-5.7v-50.8c0-0.3,0-0.6,0-0.9C773.1,107.3,787.8,86.5,805.4,79.1z"/>
	<path class="st0" d="M1000,61.7l-41.6,18l7.5,5.6c-2.2,2.5-5.6,6.2-10,10.3V0h-20.5c-7.3,0-13.2,5.9-13.2,13.2v104.7
		c-3,1.2-6.1,2.2-9.2,2.9V30.3h-20.5c-7.3,0-13.2,5.9-13.2,13.2v73.4c-3.2-1.8-6.2-4.1-9.2-6.6v-51h-20.5c-7.3,0-13.2,5.9-13.2,13.2
		v12c-0.6-0.3-1.1-0.6-1.7-0.8c-1.3-0.5-2.6-0.9-3.9-1.2c-1.3-0.3-2.6-0.5-3.9-0.6c-1.6-0.1-3.2-0.2-4.8,0c-0.3,0-0.7,0.1-1.1,0.1
		c-1.8,0.2-3.5,0.5-5.3,1c-0.3,0.1-0.7,0.2-1,0.3c-0.7,0.2-1.4,0.4-2.1,0.7c-0.7,0.2-1.4,0.5-2,0.8c-17.3,7.4-31.8,27.7-32.6,48.6
		c0.9-16.4,14.6-29.5,31.2-29.5c1.1,0,2.1,0,3.1,0.1c13.9,1,22.4,8.7,32.8,18.2c12.5,11.4,28.1,25.6,55,25.6
		c42.4,0,76.2-35.8,85.8-47.1l8.2,6.1L1000,61.7z"/>
</g>
</svg>
