<svg width="60" height="60" viewBox="0 0 60 60" fill="none" xmlns="http://www.w3.org/2000/svg">
<path d="M55.7871 18.8721H54.1439V36.9341C54.1439 39.7464 52.5065 42.2893 49.2239 42.2893H17.0635V43.148C17.0635 45.6344 19.8913 48.1441 22.7953 48.1441H47.3835L56.7903 53.675L55.4261 48.1441H55.7871C58.6892 48.1441 59.9987 45.6402 59.9987 43.148V23.1597C59.9987 20.6734 58.6892 18.8721 55.7871 18.8721Z" fill="#242F65"/>
<path d="M44.4233 6.32324H7.06967C3.78318 6.32324 0.000976562 9.24284 0.000976562 12.057V34.6956C0.000976562 37.2873 3.2055 39.1589 6.27927 39.4478L4.27888 47.0414L17.097 39.5004H44.4233C47.7098 39.5004 50.7426 37.5079 50.7426 34.6956V12.057C50.7426 9.24284 47.7078 6.32324 44.4233 6.32324ZM12.7683 25.4333C11.8734 25.4333 11.0152 25.0778 10.3823 24.445C9.74954 23.8122 9.39403 22.9539 9.39403 22.059C9.39403 21.1641 9.74954 20.3058 10.3823 19.673C11.0152 19.0402 11.8734 18.6847 12.7683 18.6847C13.6633 18.6847 14.5215 19.0402 15.1543 19.673C15.7872 20.3058 16.1427 21.1641 16.1427 22.059C16.1427 22.9539 15.7872 23.8122 15.1543 24.445C14.5215 25.0778 13.6633 25.4333 12.7683 25.4333ZM25.3718 25.4333C24.4769 25.4333 23.6186 25.0778 22.9858 24.445C22.353 23.8122 21.9975 22.9539 21.9975 22.059C21.9975 21.1641 22.353 20.3058 22.9858 19.673C23.6186 19.0402 24.4769 18.6847 25.3718 18.6847C26.2667 18.6847 27.125 19.0402 27.7578 19.673C28.3906 20.3058 28.7461 21.1641 28.7461 22.059C28.7461 22.9539 28.3906 23.8122 27.7578 24.445C27.125 25.0778 26.2667 25.4333 25.3718 25.4333ZM37.9772 25.4333C37.5338 25.4333 37.0948 25.346 36.6851 25.1763C36.2755 25.0066 35.9033 24.7579 35.5898 24.4444C35.2763 24.1309 35.0276 23.7587 34.8579 23.3491C34.6882 22.9395 34.6009 22.5004 34.6009 22.057C34.6009 21.6137 34.6882 21.1746 34.8579 20.765C35.0276 20.3554 35.2763 19.9832 35.5898 19.6697C35.9033 19.3561 36.2755 19.1075 36.6851 18.9378C37.0948 18.7681 37.5338 18.6808 37.9772 18.6808C38.8726 18.6808 39.7314 19.0365 40.3646 19.6697C40.9977 20.3028 41.3534 21.1616 41.3534 22.057C41.3534 22.9525 40.9977 23.8113 40.3646 24.4444C39.7314 25.0776 38.8726 25.4333 37.9772 25.4333Z" fill="#242F65"/>
</svg>
